<svg width="18" height="18" fill="none" xmlns="http://www.w3.org/2000/svg"><path fill-rule="evenodd" clip-rule="evenodd" d="M6.586.359A.496.496 0 017.071 0h3.857c.23 0 .43.148.486.359l.548 2.077h4.752c.276 0 .5.212.5.474a.487.487 0 01-.5.473h-.825L14.64 17.566a.49.49 0 01-.498.434H3.857a.49.49 0 01-.498-.434L2.11 3.383h-.825a.487.487 0 01-.5-.473c0-.262.224-.474.5-.474h4.752L6.586.36zM3.115 3.383l1.202 13.67h9.366l1.202-13.67H3.115zm3.954-.947h3.862L10.538.947H7.462l-.393 1.49zM5.744 6.092a.493.493 0 01.54.433l.643 7.308a.482.482 0 01-.457.511.493.493 0 01-.54-.432l-.643-7.309a.482.482 0 01.457-.511zm6.512 0c.275.022.48.25.457.511l-.643 7.309a.493.493 0 01-.54.432.482.482 0 01-.457-.511l.643-7.308a.493.493 0 01.54-.433zM9 6.09c.276 0 .5.212.5.474v7.308a.487.487 0 01-.5.474.487.487 0 01-.5-.474V6.564c0-.262.224-.474.5-.474z" fill="#00212D"/></svg>