<svg width="76" height="76" fill="none" xmlns="http://www.w3.org/2000/svg"><path opacity=".1" d="M74.12 10.06c8.873 18.591-15.585 62.025-33.11 65.734C23.483 79.502-2.488 32.164.191 16.86 2.87 1.557 65.247-8.533 74.12 10.059z" fill="#FB7574"/><g clip-path="url(#clip0_130:3463)" fill="#FB7574"><path d="M44.45 36.963l-4.798-2.523-4.798 2.523.916-5.342-3.882-3.785 5.366-.78 2.399-4.861 2.4 4.86 5.363.78-3.88 3.786.913 5.342z"/><path fill-rule="evenodd" clip-rule="evenodd" d="M55.88 15.49v35.827a.431.431 0 01-.395.43.431.431 0 01-.21-.037l-15.623-6.974-15.623 6.972a.428.428 0 01-.605-.391V15.489a1.359 1.359 0 011.359-1.359h29.739a1.359 1.359 0 011.359 1.36zM39.653 41.762l13.511 6.03V16.847H26.142v30.944l13.51-6.03z"/></g><defs><clipPath id="clip0_130:3463"><path fill="#fff" transform="translate(17.348 9.913)" d="M0 0h44.609v44.609H0z"/></clipPath></defs></svg>