<svg width="76" height="76" fill="none" xmlns="http://www.w3.org/2000/svg"><path opacity=".1" d="M74.12 10.06c8.873 18.591-15.585 62.025-33.11 65.734C23.483 79.502-2.488 32.164.191 16.86 2.87 1.557 65.247-8.533 74.12 10.059z" fill="#FB7574"/><g clip-path="url(#clip0_130:3467)" fill="#FB7574"><path d="M30.859 30.859h2.717v2.717H30.86v-2.717zm0 7.434h2.717v2.718H30.86v-2.718zm0-14.869h2.717v2.717H30.86v-2.717z"/><path fill-rule="evenodd" clip-rule="evenodd" d="M55.88 45.728h1.86v2.718H21.564v-2.718h1.859v-28.38a1.359 1.359 0 011.359-1.359h26.021a1.359 1.359 0 011.359 1.359v9.793h3.717v18.587zm-7.434-11.152v11.152h4.717v-15.87H41.011v15.87h4.717V34.576h2.718zm-10.153-7.435h11.153v-8.435H26.14v27.022h12.152V27.141z"/></g><defs><clipPath id="clip0_130:3467"><path fill="#fff" transform="translate(17.348 9.913)" d="M0 0h44.609v44.609H0z"/></clipPath></defs></svg>