<svg width="76" height="76" fill="none" xmlns="http://www.w3.org/2000/svg"><path opacity=".1" d="M74.12 10.06c8.873 18.591-15.585 62.025-33.11 65.734C23.483 79.502-2.488 32.164.191 16.86 2.87 1.557 65.247-8.533 74.12 10.059z" fill="#FB7574"/><g clip-path="url(#clip0_130:3471)" fill="#FB7574"><path d="M34.576 26.141h-3.13l4.489-5.237 4.489 5.237h-3.13v7.435h-2.718v-7.435zm7.434 12.152V30.86h2.718v7.434h3.13l-4.488 5.238-4.49-5.238h3.13z"/><path fill-rule="evenodd" clip-rule="evenodd" d="M39.652 50.304c-9.99 0-18.087-8.097-18.087-18.087S29.663 14.13 39.652 14.13c9.99 0 18.087 8.098 18.087 18.087 0 9.99-8.097 18.087-18.087 18.087zm0-2.717a15.37 15.37 0 100-30.74 15.37 15.37 0 000 30.74z"/></g><defs><clipPath id="clip0_130:3471"><path fill="#fff" transform="translate(17.348 9.913)" d="M0 0h44.609v44.609H0z"/></clipPath></defs></svg>