<svg width="76" height="76" fill="none" xmlns="http://www.w3.org/2000/svg"><path opacity=".1" d="M74.12 10.06c8.873 18.591-15.585 62.025-33.11 65.734C23.483 79.502-2.488 32.164.191 16.86 2.87 1.557 65.247-8.533 74.12 10.059z" fill="#FB7574"/><g clip-path="url(#clip0_130:3475)"><path fill-rule="evenodd" clip-rule="evenodd" d="M43.868 42.87h-10.29l-.062.429a6.006 6.006 0 01-11.89 0l-.062-.43h-1.858V21.066a1.359 1.359 0 011.36-1.359h26.02a1.359 1.359 0 011.36 1.36v4.217h5.824l5.328 7.203V42.87h-3.716l-.062.429a6.006 6.006 0 01-11.89 0l-.062-.43zm1.86-4.78V22.424H22.424V39.11l.857-.875a6.006 6.006 0 019.717 1.63l.135.286h11.179l.135-.285a6.053 6.053 0 011.139-1.63l.142-.147zM48.446 28v6.576h8.434v-1.194L52.9 28h-4.454zm1.429 17.728a3.288 3.288 0 100-6.577 3.288 3.288 0 000 6.577zM30.859 42.44a3.29 3.29 0 10-6.579 0 3.29 3.29 0 006.579 0z" fill="#FB7574"/></g><defs><clipPath id="clip0_130:3475"><path fill="#fff" transform="translate(17.348 9.913)" d="M0 0h44.609v44.609H0z"/></clipPath></defs></svg>