<svg width="28" height="29" fill="none" xmlns="http://www.w3.org/2000/svg"><path d="M4.483 6.552V6.49l-.044-.044L.221 2.229 1.896.555l4.217 4.218.043.044h20.385a1.183 1.183 0 011.134 1.523s0 0 0 0l-3.2 10.666h0a1.183 1.183 0 01-1.134.844H6.85v2.967h14.667v2.366H5.667A1.183 1.183 0 014.483 22V6.552zM7 7.183h-.15v8.3h15.61l.033-.107 2.4-8 .058-.193H6.999zm-.667 21.334a1.85 1.85 0 110-3.7 1.85 1.85 0 010 3.7zm16 0a1.85 1.85 0 110-3.701 1.85 1.85 0 010 3.7z" fill="#00212D" stroke="#fff" stroke-width=".3"/></svg>