<svg width="28" height="24" fill="none" xmlns="http://www.w3.org/2000/svg"><path fill-rule="evenodd" clip-rule="evenodd" d="M13.8 2.001l.201.18.2-.18A7.683 7.683 0 0120.14.08a7.652 7.652 0 014.64 2.213 7.696 7.696 0 01.309 10.563L13.999 23.96 4.854 14.8l-2.02-2.035a7.703 7.703 0 01.388-10.472A7.686 7.686 0 019.47.08 7.664 7.664 0 0113.8 2zM12.422 3.54l1.581 1.416 1.58-1.418a5.63 5.63 0 018.204.75 5.632 5.632 0 01-.2 7.147l-.007.007L14 21.036 4.42 11.44l-.084-.099a5.633 5.633 0 01.348-7.586 5.632 5.632 0 017.737-.216z" fill="#00212D"/></svg>