<svg width="12" height="12" fill="none" xmlns="http://www.w3.org/2000/svg"><path d="M8.121 3.879l-.353-.354.353.354zm-6.364 6.364l.354.353-.354-.353zm-.21-4.893a.5.5 0 00-.993-.115l.993.115zM.792 7.528l.497.057-.497-.057zm3.68 3.68l-.057-.497.057.497zm2.293.238a.5.5 0 10-.115-.993l.115.993zm-5.878-.688l-.405.294.405-.294zm.355.355l-.294.405.294-.405zm9-9.356l.354.354-.353-.354zM5.237.554a.5.5 0 00.114.993L5.236.554zm2.292.238L7.47.295l.057.497zm3.68 3.68l-.497-.057.497.057zm-.755 2.178a.5.5 0 10.994.114l-.994-.114zM10.76.887l.293-.405-.293.405zm.354.355l.405-.294-.405.294zM7.768 3.525L1.404 9.89l.707.707 6.364-6.364-.707-.707zM.554 5.235L.295 7.471l.994.114.258-2.235-.993-.115zm3.975 6.47l2.236-.259-.115-.993-2.235.258.114.994zM.295 7.47C.194 8.35.112 9.05.111 9.6c-.001.554.077 1.045.371 1.45l.81-.586c-.11-.151-.182-.384-.181-.861 0-.48.073-1.115.178-2.019L.295 7.47zm4.12 3.24c-.904.104-1.539.177-2.019.178-.477.001-.71-.071-.86-.18l-.588.809c.406.294.897.372 1.45.371.55-.001 1.252-.083 2.131-.184l-.114-.994zm4.06-6.479l2.121-2.121-.707-.707-2.121 2.121.707.707zM5.35 1.547l2.235-.258-.114-.994-2.235.259.114.993zm5.361 2.868l-.258 2.235.994.114.258-2.235-.994-.114zM7.585 1.289c.904-.105 1.539-.177 2.019-.178.477-.001.71.071.86.18l.588-.809c-.406-.294-.897-.372-1.45-.371-.55.001-1.252.083-2.131.184l.114.994zm4.12 3.24c.101-.879.183-1.58.184-2.13.001-.554-.077-1.045-.371-1.451l-.81.587c.11.15.182.384.181.861 0 .48-.073 1.115-.178 2.019l.994.114zm-1.24-3.237c.047.034.09.071.131.112l.707-.707a2.09 2.09 0 00-.251-.215l-.587.81zm.131.112c.04.04.078.084.112.131l.81-.587a2.094 2.094 0 00-.215-.251l-.707.707zm0 .707l.707-.707-.707-.707-.707.707.707.707zM.482 11.05c.065.09.137.174.215.252l.707-.707a1.091 1.091 0 01-.112-.131l-.81.587zm.215.252c.078.078.162.15.251.215l.587-.81a1.086 1.086 0 01-.131-.112l-.707.707zm.707-1.414l-.707.707.707.707.707-.707-.707-.707z" fill="#888"/></svg>