<svg width="16" height="10" fill="none" xmlns="http://www.w3.org/2000/svg"><path d="M11 5v-.5.5zM2 5v.5V5zm3.31-3.608a.5.5 0 10-.62-.784l.62.784zM3.238 2.398l.31.392-.31-.392zm0 5.204l.31-.392-.31.392zm1.452 1.79a.5.5 0 10.622-.784l-.622.784zM1.02 4.749l-.493-.078.494.078zm0 .502l-.493.078.494-.078zM14 5v.5V5zM11.31.608a.5.5 0 10-.62.784l.62-.784zm1.453 1.79l.31-.392-.31.392zm0 5.204l-.31-.392.31.392zm-2.074 1.006a.5.5 0 10.622.784l-.622-.784zM14.98 4.75l.494-.078-.494.078zm0 .502l.494.078-.494-.078zM11 4.5H2v1h9v-1zM4.69.608L2.925 2.006l.622.784L5.31 1.392 4.689.608zM2.925 7.994L4.69 9.392l.622-.784L3.548 7.21l-.622.784zm0-5.988c-.693.55-1.247.988-1.637 1.377-.392.39-.684.792-.763 1.288l.988.157c.029-.184.143-.4.48-.737.34-.339.841-.736 1.554-1.301l-.622-.784zm.622 5.204c-.713-.565-1.213-.962-1.553-1.301-.338-.337-.452-.553-.481-.737l-.988.157c.08.496.37.898.763 1.288.39.389.944.827 1.637 1.377l.622-.784zM11 5.5h3v-1h-3v1zm-.31-4.108l1.762 1.398.622-.784L11.31.608l-.622.784zm1.762 5.818L10.69 8.608l.622.784 1.763-1.398-.622-.784zm0-4.42c.713.565 1.213.962 1.553 1.301.338.337.452.553.481.737l.988-.157c-.079-.496-.37-.898-.763-1.288-.39-.389-.944-.827-1.637-1.377l-.622.784zm.622 5.204c.693-.55 1.247-.988 1.637-1.377.392-.39.684-.792.763-1.288l-.988-.157c-.029.184-.143.4-.48.737-.34.339-.841.736-1.554 1.301l.622.784zm1.412-3.166c.01.057.014.115.014.172h1c0-.11-.009-.22-.026-.33l-.988.158zM14.5 5c0 .057-.005.115-.014.172l.988.157c.017-.109.026-.219.026-.329h-1zm-.5.5h1v-1h-1v1zM.526 4.67C.51 4.78.5 4.89.5 5h1c0-.057.005-.115.014-.172l-.988-.157zM.5 5c0 .11.009.22.026.33l.988-.158A1.092 1.092 0 011.5 5h-1zM2 4.5H1v1h1v-1z" fill="#888"/></svg>