<svg width="66" height="65" fill="none" xmlns="http://www.w3.org/2000/svg"><path d="M40.765 32.5c0 4.242-3.49 7.657-7.765 7.657-4.275 0-7.765-3.415-7.765-7.657s3.49-7.657 7.765-7.657c4.275 0 7.765 3.415 7.765 7.657z" fill="#FB7574"/><path fill-rule="evenodd" clip-rule="evenodd" d="M66 32.5C66 50.462 51.212 65 33 65S0 50.462 0 32.5 14.787 0 33 0c18.212 0 33 14.538 33 32.5zM33 57.33c13.95 0 25.235-11.13 25.235-24.83C58.235 18.8 46.95 7.67 33 7.67S7.765 18.8 7.765 32.5C7.765 46.2 19.05 57.33 33 57.33z" fill="#FB7574"/></svg>